<svg width="512" height="512" viewBox="0 0 140 140" xmlns="http://www.w3.org/2000/svg">
  <rect x="0" y="0" width="140" height="140" rx="28" fill="#0f172a"/>

  <!-- Bottom spool - teal -->
  <ellipse cx="38" cy="112" rx="22" ry="6" fill="#0d9488" stroke="#0a7a70" stroke-width="1"/>
  <rect x="20" y="90" width="36" height="22" fill="#14b8a6" stroke="none"/>
  <line x1="16" y1="90" x2="16" y2="112" stroke="#0d9488" stroke-width="1"/>
  <line x1="60" y1="90" x2="60" y2="112" stroke="#0d9488" stroke-width="1"/>
  <rect x="16" y="109" width="44" height="4" rx="1.5" fill="#0d9488" stroke="#0a7a70" stroke-width="0.75"/>
  <ellipse cx="38" cy="90" rx="22" ry="6" fill="#2dd4bf" stroke="#0d9488" stroke-width="1"/>
  <rect x="16" y="88" width="44" height="4" rx="1.5" fill="#0d9488" stroke="#0a7a70" stroke-width="0.75"/>
  <ellipse cx="38" cy="90" rx="8" ry="3" fill="#0a7a70" stroke="#087669" stroke-width="0.75"/>

  <!-- Middle spool - amber -->
  <ellipse cx="38" cy="78" rx="22" ry="6" fill="#b45309" stroke="#a34a08" stroke-width="1"/>
  <rect x="20" y="56" width="36" height="22" fill="#f59e0b" stroke="none"/>
  <line x1="16" y1="56" x2="16" y2="78" stroke="#d97706" stroke-width="1"/>
  <line x1="60" y1="56" x2="60" y2="78" stroke="#d97706" stroke-width="1"/>
  <rect x="16" y="75" width="44" height="4" rx="1.5" fill="#d97706" stroke="#b45309" stroke-width="0.75"/>
  <ellipse cx="38" cy="56" rx="22" ry="6" fill="#fbbf24" stroke="#d97706" stroke-width="1"/>
  <rect x="16" y="54" width="44" height="4" rx="1.5" fill="#d97706" stroke="#b45309" stroke-width="0.75"/>
  <ellipse cx="38" cy="56" rx="8" ry="3" fill="#b45309" stroke="#a34a08" stroke-width="0.75"/>

  <!-- Top spool - blue -->
  <ellipse cx="38" cy="44" rx="22" ry="6" fill="#1d4ed8" stroke="#1a44c0" stroke-width="1"/>
  <rect x="20" y="22" width="36" height="22" fill="#3b82f6" stroke="none"/>
  <line x1="16" y1="22" x2="16" y2="44" stroke="#2563eb" stroke-width="1"/>
  <line x1="60" y1="22" x2="60" y2="44" stroke="#2563eb" stroke-width="1"/>
  <rect x="16" y="41" width="44" height="4" rx="1.5" fill="#2563eb" stroke="#1d4ed8" stroke-width="0.75"/>
  <ellipse cx="38" cy="22" rx="22" ry="6" fill="#60a5fa" stroke="#3b82f6" stroke-width="1"/>
  <rect x="16" y="20" width="44" height="4" rx="1.5" fill="#2563eb" stroke="#1d4ed8" stroke-width="0.75"/>
  <ellipse cx="38" cy="22" rx="8" ry="3" fill="#1d4ed8" stroke="#1a44c0" stroke-width="0.75"/>

  <!-- Color bars -->
  <rect x="90" y="20" width="30" height="5" rx="1.5" fill="#3b82f6"/>
  <rect x="90" y="29" width="30" height="5" rx="1.5" fill="#ef4444"/>
  <rect x="90" y="38" width="30" height="5" rx="1.5" fill="#f59e0b"/>
  <rect x="90" y="47" width="30" height="5" rx="1.5" fill="#10b981"/>
  <rect x="90" y="56" width="30" height="5" rx="1.5" fill="#8b5cf6"/>
  <rect x="90" y="65" width="30" height="5" rx="1.5" fill="#ec4899"/>
  <rect x="90" y="74" width="30" height="5" rx="1.5" fill="#06b6d4"/>
  <rect x="90" y="83" width="30" height="5" rx="1.5" fill="#f97316"/>
  <rect x="90" y="92" width="30" height="5" rx="1.5" fill="#a3e635"/>
  <rect x="90" y="101" width="30" height="5" rx="1.5" fill="#a78bfa"/>
  <rect x="90" y="110" width="30" height="5" rx="1.5" fill="#fbbf24"/>
</svg>
